# xmcd
#
# Track frame offsets:
#	150
#	27390
#	57596
#	80987
#	97600
#	127781
#	154631
#	171210
#	201409
#	231116
#	245611
#	269876
#	293526
#	318141
#	344480
#
# Disc length: 4868 seconds
#
# Revision: 0
# Processed by: cddbd v1.5.2PL0 Copyright (c) Steve Scherf et al.
# Submitted via: audiograbber 1.83.01
#
DISCID=d613020f
DTITLE=Various Artist - Mega Hits The Dance Remixes CD2
DYEAR=2007
DGENRE=Crossover
TTITLE0=The Pussycat Dolls - Don't Cha (Kaskade Club Mix)
TTITLE1=Rihanna - SOS (Nevin'S Glam Club Mix)
TTITLE2=Kanye West - Stronger (Album Version Explicit)
TTITLE3=Mariah Carey ft. Snoop Dogg - Say Somethin' (Morales Radio Edit)
TTITLE4=Sugababes - Easy (Sermus Haji and Paul Emanuel Remix)
TTITLE5=Nelly Furtado ft. Timbaland - Promiscuous (Axwell Remix)
TTITLE6=Christina Milian ft. Young Jeezy - Say I (Maurice Radio Edit)
TTITLE7=Sergio Mendes ft. The Black Eyed Peas - Mas Que Nada (Masters At Work R
TTITLE7=emix)
TTITLE8=JoJo - Anything (Wawa Dub Mix)
TTITLE9=Just Jack - Starz In Their Eyes (Tropyhy Twins Aftershow Remix)
TTITLE10=Mr. Hudson and The Library - Ask The DJ (Sinden and The Count Of Monte Chr
TTITLE10=isto Mix)
TTITLE11=Sunblock ft. Robin Beck - First Time (Unmixed Version)
TTITLE12=Culcha Candela - Hamma (Tocadisco's Einzigartig Remix)
TTITLE13=Deichkind - Remmidemmi (Yippie Yippie Yeah) (Scooter Remix)
TTITLE14=Klaxons - Gravity's Rainbow (Van She Tech Mix Edit)
EXTD=
EXTT0=
EXTT1=
EXTT2=
EXTT3=
EXTT4=
EXTT5=
EXTT6=
EXTT7=
EXTT8=
EXTT9=
EXTT10=
EXTT11=
EXTT12=
EXTT13=
EXTT14=
PLAYORDER=
